Encoded by Ratzz.







General

Complete name                    : Desi Boyz 2011 Hindi 1080p Brrip x264 Ratzz.mp4

Format                           : MP4
Format profile                   : Base Media
Codec ID                         : isom
File size                        : 1.61 GiB
Duration                         : 2h 1mn
Overall bit rate                 : 1 899 Kbps
Cover                            : Yes

Video
ID                               : 1
Format                           : AVC
Format/Info                      : Advanced Video Codec
Format profile                   : High@L4.0
Format settings, CABAC           : Yes
Format settings, ReFrames        : 3 frames
Duration                         : 2h 1mn
Bit rate mode                    : Variable
Bit rate                         : 1 800 Kbps
Maximum bit rate                 : 25.0 Mbps
Width                            : 1 920 pixels
Height                           : 816 pixels
Display aspect ratio             : 2.35:1
Frame rate mode                  : Constant
Frame rate                       : 24.000 fps
Color space                      : YUV
Chroma subsampling               : 4:2:0
Bit depth                        : 8 bits
Scan type                        : Progressive
Bits/(Pixel*Frame)               : 0.048
Stream size                      : 1.53 GiB (95%)
Title                            : Desi Boyz 2011 Hindi 1080p Brrip x264 Ratzz

Audio
ID                               : 2
Format                           : AAC
Format/Info                      : Advanced Audio Codec
Format profile                   : LC
Codec ID                         : 40
Duration                         : 2h 1mn
Bit rate mode                    : Variable
Bit rate                         : 96.0 Kbps
Maximum bit rate                 : 101 Kbps
Channel(s)                       : 2 channels
Channel positions                : Front: L R
Sampling rate                    : 48.0 KHz
Compression mode                 : Lossy
Stream size                      : 83.5 MiB (5%)
Language                         : Hindi







Sample                           : Included.






Subtitles                        : not included.




Poster :

 
http://img571.imageshack.us/img571/2424/desiboyz2011hindi1080pb.jpg



Screens :

 
http://img33.imageshack.us/img33/2424/desiboyz2011hindi1080pb.jpg
 
http://img23.imageshack.us/img23/2424/desiboyz2011hindi1080pb.jpg
 
http://img40.imageshack.us/img40/2424/desiboyz2011hindi1080pb.jpg







Pls seed back and reply if you like my work.

Thank you.